<?xml version="1.0" encoding="UTF-8" standalone="no"?>
<svg
   height="48"
   viewBox="0 -960 960 960"
   width="48"
   version="1.1"
   id="svg135"
   sodipodi:docname="circle_white.svg"
   inkscape:version="1.2.2 (b0a8486541, 2022-12-01)"
   xmlns:inkscape="http://www.inkscape.org/namespaces/inkscape"
   xmlns:sodipodi="http://sodipodi.sourceforge.net/DTD/sodipodi-0.dtd"
   xmlns="http://www.w3.org/2000/svg"
   xmlns:svg="http://www.w3.org/2000/svg">
  <defs
     id="defs139" />
  <sodipodi:namedview
     id="namedview137"
     pagecolor="#ffffff"
     bordercolor="#666666"
     borderopacity="1.0"
     inkscape:showpageshadow="2"
     inkscape:pageopacity="0.0"
     inkscape:pagecheckerboard="0"
     inkscape:deskcolor="#d1d1d1"
     showgrid="false"
     inkscape:zoom="16.791667"
     inkscape:cx="23.434243"
     inkscape:cy="24.029777"
     inkscape:window-width="1920"
     inkscape:window-height="993"
     inkscape:window-x="0"
     inkscape:window-y="0"
     inkscape:window-maximized="1"
     inkscape:current-layer="svg135" />
  <path
     d="M480-80q-82 0-155-31.5t-127.5-86Q143-252 111.5-325T80-480q0-83 31.5-156t86-127Q252-817 325-848.5T480-880q83 0 156 31.5T763-763q54 54 85.5 127T880-480q0 82-31.5 155T763-197.5q-54 54.5-127 86T480-80Zm0-60q142 0 241-99.5T820-480q0-142-99-241t-241-99q-141 0-240.5 99T140-480q0 141 99.5 240.5T480-140Zm0-340Z"
     id="path133"
     style="fill:#ffffff;fill-opacity:1" />
</svg>
