<?xml version="1.0" encoding="UTF-8" standalone="no"?>
<svg
   height="48"
   viewBox="0 -960 960 960"
   width="48"
   version="1.1"
   id="svg260"
   sodipodi:docname="draw_white.svg"
   inkscape:version="1.2.2 (b0a8486541, 2022-12-01)"
   xmlns:inkscape="http://www.inkscape.org/namespaces/inkscape"
   xmlns:sodipodi="http://sodipodi.sourceforge.net/DTD/sodipodi-0.dtd"
   xmlns="http://www.w3.org/2000/svg"
   xmlns:svg="http://www.w3.org/2000/svg">
  <defs
     id="defs264" />
  <sodipodi:namedview
     id="namedview262"
     pagecolor="#ffffff"
     bordercolor="#666666"
     borderopacity="1.0"
     inkscape:showpageshadow="2"
     inkscape:pageopacity="0.0"
     inkscape:pagecheckerboard="0"
     inkscape:deskcolor="#d1d1d1"
     showgrid="false"
     inkscape:zoom="16.791667"
     inkscape:cx="23.434243"
     inkscape:cy="24.029777"
     inkscape:window-width="1920"
     inkscape:window-height="993"
     inkscape:window-x="0"
     inkscape:window-y="0"
     inkscape:window-maximized="1"
     inkscape:current-layer="svg260" />
  <path
     d="M219-211q-88-6-133.5-40.5T40-349q0-60 51-98t142-46q44-4 65.5-16t21.5-33q0-29-29-44.5T194-609l5-60q89 9 135 41t46 86q0 46-37.5 75T238-433q-69 5-103.5 26T100-349q0 35 30.5 54.5T222-271l-3 60Zm342-24L396-400l355-355q14-14 31.5-13.5T814-755l102 101q14 14 14 32t-14 32L561-235Zm-202 75q-17 4-30-9t-9-30l33-159 165 165-159 33Z"
     id="path258"
     style="fill-opacity:1;fill:#ffffff" />
</svg>
