<?xml version="1.0" encoding="UTF-8" standalone="no"?>
<svg
   height="48"
   viewBox="0 -960 960 960"
   width="48"
   version="1.1"
   id="svg4"
   sodipodi:docname="keyboard_white.svg"
   inkscape:version="1.2.2 (b0a8486541, 2022-12-01)"
   xmlns:inkscape="http://www.inkscape.org/namespaces/inkscape"
   xmlns:sodipodi="http://sodipodi.sourceforge.net/DTD/sodipodi-0.dtd"
   xmlns="http://www.w3.org/2000/svg"
   xmlns:svg="http://www.w3.org/2000/svg">
  <defs
     id="defs8" />
  <sodipodi:namedview
     id="namedview6"
     pagecolor="#ffffff"
     bordercolor="#666666"
     borderopacity="1.0"
     inkscape:showpageshadow="2"
     inkscape:pageopacity="0.0"
     inkscape:pagecheckerboard="0"
     inkscape:deskcolor="#d1d1d1"
     showgrid="false"
     inkscape:zoom="16.791667"
     inkscape:cx="23.434243"
     inkscape:cy="24.029777"
     inkscape:window-width="1920"
     inkscape:window-height="993"
     inkscape:window-x="0"
     inkscape:window-y="0"
     inkscape:window-maximized="1"
     inkscape:current-layer="svg4" />
  <path
     d="M140-200q-24 0-42-18.5T80-260v-440q0-24 18-42t42-18h680q24 0 42 18t18 42v440q0 23-18 41.5T820-200H140Zm160-125h360v-60H300v60Zm-97-125h60v-60h-60v60Zm124 0h60v-60h-60v60Zm123 0h60v-60h-60v60Zm124 0h60v-60h-60v60Zm123 0h60v-60h-60v60ZM203-575h60v-60h-60v60Zm124 0h60v-60h-60v60Zm123 0h60v-60h-60v60Zm124 0h60v-60h-60v60Zm123 0h60v-60h-60v60Z"
     id="path2"
     style="fill:#ffffff;fill-opacity:1" />
</svg>
