<?xml version="1.0" encoding="UTF-8" standalone="no"?>
<svg
   height="48"
   viewBox="0 -960 960 960"
   width="48"
   version="1.1"
   id="svg135"
   sodipodi:docname="save_as_white.svg"
   inkscape:version="1.2.2 (b0a8486541, 2022-12-01)"
   xmlns:inkscape="http://www.inkscape.org/namespaces/inkscape"
   xmlns:sodipodi="http://sodipodi.sourceforge.net/DTD/sodipodi-0.dtd"
   xmlns="http://www.w3.org/2000/svg"
   xmlns:svg="http://www.w3.org/2000/svg">
  <defs
     id="defs139" />
  <sodipodi:namedview
     id="namedview137"
     pagecolor="#ffffff"
     bordercolor="#666666"
     borderopacity="1.0"
     inkscape:showpageshadow="2"
     inkscape:pageopacity="0.0"
     inkscape:pagecheckerboard="0"
     inkscape:deskcolor="#d1d1d1"
     showgrid="false"
     inkscape:zoom="16.791667"
     inkscape:cx="23.434243"
     inkscape:cy="24.029777"
     inkscape:window-width="1920"
     inkscape:window-height="993"
     inkscape:window-x="0"
     inkscape:window-y="0"
     inkscape:window-maximized="1"
     inkscape:current-layer="svg135" />
  <path
     d="M180-120q-25 0-42.5-17.5T120-180v-600q0-25 17.5-42.5T180-840h503l157 157v258L536-120H180Zm53-464h358v-143H233v143Zm247 339q43 0 73.5-30.5T584-349q0-43-30.5-73.5T480-453q-43 0-73.5 30.5T376-349q0 43 30.5 73.5T480-245ZM590-40v-50l228-228 50 50L640-40h-50Zm304-254-50-50 39-39q6-6 10.5-6t10.5 6l27 27q6 6 6 12.5t-6 12.5l-37 37Z"
     id="path133"
     style="fill:#ffffff;fill-opacity:1" />
</svg>
